<svg xmlns="http://www.w3.org/2000/svg" xmlns:xlink="http://www.w3.org/1999/xlink" width="526.574" height="191.062" viewBox="0 0 526.574 191.062">
  <defs>
    <clipPath id="clip-path">
      <path id="Path_130897" data-name="Path 130897" d="M158.974,88.968l-51.431,51.449,51.431,51.449H100.2L48.755,140.417,100.2,88.968ZM100.2.8,4.682,96.325,34.076,125.72,158.974.8H100.2Z" transform="translate(-4.682 -0.804)"/>
    </clipPath>
    <linearGradient id="linear-gradient" x1="0.197" y1="1.193" x2="0.699" y2="0.448" gradientUnits="objectBoundingBox">
      <stop offset="0" stop-color="#1a237e" stop-opacity="0.4"/>
      <stop offset="1" stop-color="#1a237e" stop-opacity="0"/>
    </linearGradient>
    <radialGradient id="radial-gradient" cx="0.028" cy="0.068" r="1.223" gradientTransform="matrix(1.238, 0, 0, -1, -2.189, -5.539)" gradientUnits="objectBoundingBox">
      <stop offset="0" stop-color="#fff" stop-opacity="0.102"/>
      <stop offset="1" stop-color="#fff" stop-opacity="0"/>
    </radialGradient>
  </defs>
  <g id="flutter" transform="translate(-4.121 -8.966)">
    <g id="Group_61478" data-name="Group 61478" transform="translate(4.121 8.966)">
      <g id="Group_61473" data-name="Group 61473" transform="translate(0 0)" clip-path="url(#clip-path)">
        <path id="Path_130896" data-name="Path 130896" d="M43.363,100.253,124.187,19.41H65.417L13.987,70.859Z" transform="translate(30.104 68.754)" fill="#39cefd"/>
      </g>
      <g id="Group_61474" data-name="Group 61474" transform="translate(0 0)" clip-path="url(#clip-path)">
        <path id="Path_130898" data-name="Path 130898" d="M4.682,96.325,100.2.8h58.77L34.076,125.72Z" transform="translate(-4.682 -0.804)" fill="#39cefd"/>
      </g>
      <g id="Group_61475" data-name="Group 61475" transform="translate(0 0)" clip-path="url(#clip-path)">
        <path id="Path_130900" data-name="Path 130900" d="M42.241,81.7h58.77L49.581,30.268,20.186,59.662Z" transform="translate(53.281 109.345)" fill="#03569b"/>
      </g>
      <g id="Group_61476" data-name="Group 61476" transform="translate(0 0)" clip-path="url(#clip-path)">
        <path id="Path_130902" data-name="Path 130902" d="M49.581,30.268,20.186,59.662l43.595-15.1Z" transform="translate(53.281 109.345)" fill="url(#linear-gradient)"/>
      </g>
      <g id="Group_61477" data-name="Group 61477" transform="translate(0 0)" clip-path="url(#clip-path)">
        <path id="Path_130904" data-name="Path 130904" d="M13.986,53.457l29.395-29.4,29.4,29.4-29.4,29.4Z" transform="translate(30.102 86.146)" fill="#16b9fd"/>
      </g>
      <path id="Path_130906" data-name="Path 130906" d="M158.974,88.968l-51.431,51.449,51.431,51.449H100.2L48.755,140.417,100.2,88.968ZM100.2.8,4.682,96.325,34.076,125.72,158.974.8H100.2Z" transform="translate(-4.682 -0.804)" fill="url(#radial-gradient)"/>
    </g>
    <g id="Group_61479" data-name="Group 61479" transform="translate(177.066 60.179)">
      <path id="Path_130907" data-name="Path 130907" d="M40.62,19.774H91.984V29.819H51.044V60.211H88v9.922H51.044v38.452H40.62Zm63.793,0h10.543V108.59H104.413Zm49.113,90.8q-11.41,0-17.532-6.7-5.913-6.743-5.913-18.731V45.328h10.543V83.534q0,9,4.094,13.267t11.04,4.265a16.3,16.3,0,0,0,9.477-2.853,18.2,18.2,0,0,0,6.444-7.439,20.938,20.938,0,0,0,2.355-9.676V45.371h10.538v63.257H174.526V99.407h-.5a20.857,20.857,0,0,1-8.311,7.937,24.339,24.339,0,0,1-12.159,3.222Z" transform="translate(-40.62 -19.774)" fill="gray"/>
      <path id="Path_130908" data-name="Path 130908" d="M102.17,103.518a20.51,20.51,0,0,1-7.193-1.241,16.49,16.49,0,0,1-5.459-3.35,15.212,15.212,0,0,1-3.72-5.459A20.391,20.391,0,0,1,84.557,85.9V48.813H73.517V39.261h11.04V21.4H95.1V39.261h15.381v9.553H95.1V83.3q0,5.212,1.99,7.69a8.52,8.52,0,0,0,6.823,2.729,12.849,12.849,0,0,0,6.946-2.109v10.3a16.189,16.189,0,0,1-3.848,1.241,25.041,25.041,0,0,1-4.833.379Z" transform="translate(82.361 -13.707)" fill="gray"/>
      <path id="Path_130909" data-name="Path 130909" d="M102.17,103.518a20.51,20.51,0,0,1-7.193-1.241,16.49,16.49,0,0,1-5.459-3.35,15.212,15.212,0,0,1-3.72-5.459A20.391,20.391,0,0,1,84.557,85.9V48.813H73.517V39.261h11.04V21.4H95.1V39.261h15.381v9.553H95.1V83.3q0,5.212,1.99,7.69a8.52,8.52,0,0,0,6.823,2.729,12.849,12.849,0,0,0,6.946-2.109v10.3a16.189,16.189,0,0,1-3.848,1.241,25.041,25.041,0,0,1-4.833.379Z" transform="translate(127.072 -13.707)" fill="gray"/>
      <path id="Path_130910" data-name="Path 130910" d="M123.66,91.988a31.029,31.029,0,0,1-16.253-4.34A30.674,30.674,0,0,1,96.121,75.74,37.034,37.034,0,0,1,92.15,58.493a38.225,38.225,0,0,1,3.72-16.869,31.11,31.11,0,0,1,10.794-12.282,28.545,28.545,0,0,1,16.125-4.6,29.8,29.8,0,0,1,16.125,4.265,26.8,26.8,0,0,1,10.424,11.41,36.459,36.459,0,0,1,3.72,16.745,12.088,12.088,0,0,1-.379,3.222h-49.99a25.14,25.14,0,0,0,3.473,12.159,20.324,20.324,0,0,0,7.818,7.439,21.714,21.714,0,0,0,10.045,2.483q12.159,0,18.731-11.41l8.932,4.34a31.709,31.709,0,0,1-11.164,12.159q-6.946,4.464-16.869,4.464Zm18.233-40.314a20.526,20.526,0,0,0-2.227-7.937,16.894,16.894,0,0,0-6.326-6.7,19.41,19.41,0,0,0-10.661-2.729,17.933,17.933,0,0,0-12.651,4.833,22.862,22.862,0,0,0-6.7,12.528h38.58Zm23.379-24.933h10.045V36.914h.5a16.665,16.665,0,0,1,7.193-8.557,20.809,20.809,0,0,1,18.6-2.232v11.41a19.656,19.656,0,0,0-8.932-1.99,14.7,14.7,0,0,0-8.434,2.606,18.779,18.779,0,0,0-6.16,7.07,20.453,20.453,0,0,0-2.227,9.477V90.046H165.315V26.788Z" transform="translate(152.018 -1.187)" fill="gray"/>
    </g>
  </g>
</svg>
